<?xml version="1.0" encoding="UTF-8"?>
<svg width="150px" height="64px" viewBox="0 0 150 64" version="1.1" xmlns="http://www.w3.org/2000/svg" xmlns:xlink="http://www.w3.org/1999/xlink">
    <defs>
        <radialGradient cx="120.326519%" cy="50%" fx="120.326519%" fy="50%" r="168.312516%" id="radialGradient-1">
            <stop stop-color="#DBDBDB" offset="0%"></stop>
            <stop stop-color="#F9F9F9" offset="100%"></stop>
        </radialGradient>
    </defs>
    <g id="Mockup-2" stroke="none" stroke-width="1" fill="none" fill-rule="evenodd">
        <g id="Career" transform="translate(-1067.000000, -36.000000)" fill="url(#radialGradient-1)">
            <g id="designer-developer" transform="translate(1067.000000, 36.000000)">
                <path d="M56.8303571,1 C59.9787946,1 62.8850446,3.35267857 62.8850446,6.63950893 C62.8850446,8.47321429 62.1584821,10.2377232 61.328125,11.8638393 C58.6294643,16.984375 49.5647321,33.9029018 45.2399554,37.8816964 C43.1294643,39.8537946 40.6383929,41.0301339 37.6975446,41.0301339 C31.8504464,41.0301339 27.0758929,36.0479911 27.0758929,30.2354911 C27.0758929,27.4676339 28.2176339,24.7689732 30.2589286,22.9006696 L52.3325893,2.86830357 C53.5435268,1.76116071 55.1350446,1 56.8303571,1 Z M25.3805804,36.7745536 C27.1796875,40.2689732 30.4665179,42.8984375 34.2723214,43.9017857 L34.3069196,46.3582589 C34.5145089,56.21875 27.6640625,63 17.7689732,63 C6.04017857,63 0.954241071,53.6584821 0.954241071,43.0368304 C2.234375,43.9017857 6.69754464,47.4654018 8.15066964,47.4654018 C9.015625,47.4654018 9.7421875,46.9810268 10.0535714,46.1852679 C12.9944196,38.5044643 17.5959821,37.1205357 25.3805804,36.7745536 Z" id="paint-brush---FontAwesome"></path>
                <path d="M69.9041916,8.04790419 L69.9041916,47.9041916 L133.904192,47.9041916 L133.904192,8.04790419 L69.9041916,8.04790419 Z M133.904192,55.9520958 L149.808383,55.9520958 L149.808383,64 L54,64 L54,55.9520958 L69.9041916,55.9520958 C67.7325241,55.9520958 65.8802472,55.1537006 64.3473054,53.5568862 C62.8143636,51.9600719 62.0479042,50.0758592 62.0479042,47.9041916 L62.0479042,8.04790419 C62.0479042,5.87623665 62.8143636,3.99202395 64.3473054,2.39520958 C65.8802472,0.79839521 67.7325241,0 69.9041916,0 L133.904192,0 C136.075859,0 137.928136,0.79839521 139.461078,2.39520958 C140.99402,3.99202395 141.760479,5.87623665 141.760479,8.04790419 L141.760479,47.9041916 C141.760479,50.0758592 140.99402,51.9600719 139.461078,53.5568862 C137.928136,55.1537006 136.075859,55.9520958 133.904192,55.9520958 Z" id="computer---material"></path>
            </g>
        </g>
    </g>
</svg>